<?xml version="1.0" encoding="iso-8859-1"?>
<!-- Generator: Adobe Illustrator 19.0.0, SVG Export Plug-In . SVG Version: 6.00 Build 0)  -->
<svg version="1.1" id="Layer_1" xmlns="http://www.w3.org/2000/svg" xmlns:xlink="http://www.w3.org/1999/xlink" x="0px" y="0px"
	 viewBox="0 0 451.277 451.277" style="enable-background:new 0 0 451.277 451.277;" xml:space="preserve">
<circle style="fill:#334D5C;" cx="225.638" cy="225.638" r="225.638"/>
<path style="opacity:0.1;enable-background:new    ;" d="M192.119,137.266l-9.59,55.849l4.607,4.607h-38.221l-9.59,55.804
	l4.654,4.654h-38.033l-9.59,55.803l137.115,137.115c90.581-3.096,167.602-59.528,200.602-138.918L259.158,137.266H192.119z"/>
<polygon style="fill:#F6C358;" points="172.949,258.18 105.949,258.18 96.355,313.997 182.542,313.997 "/>
<polygon style="fill:#FCD462;" points="172.949,258.18 105.949,258.18 96.355,313.997 157.053,294.376 "/>
<polygon style="fill:#F6C358;" points="258.897,258.18 191.897,258.18 182.304,313.997 268.491,313.997 "/>
<polygon style="fill:#FCD462;" points="258.897,258.18 191.897,258.18 182.304,313.997 243.002,294.376 "/>
<polygon style="fill:#F6C358;" points="345.328,258.18 278.328,258.18 268.734,313.997 354.921,313.997 "/>
<polygon style="fill:#FCD462;" points="345.328,258.18 278.328,258.18 268.734,313.997 329.432,294.376 "/>
<polygon style="fill:#F6C358;" points="215.923,197.73 148.923,197.73 139.329,253.547 225.517,253.547 "/>
<polygon style="fill:#FCD462;" points="215.923,197.73 148.923,197.73 139.329,253.547 200.028,233.925 "/>
<polygon style="fill:#F6C358;" points="302.354,197.73 235.354,197.73 225.76,253.547 311.947,253.547 "/>
<polygon style="fill:#FCD462;" points="302.354,197.73 235.354,197.73 225.76,253.547 286.459,233.925 "/>
<polygon style="fill:#F6C358;" points="259.138,137.28 192.139,137.28 182.545,193.097 268.732,193.097 "/>
<polygon style="fill:#FCD462;" points="259.138,137.28 192.139,137.28 182.545,193.097 243.243,173.475 "/>
<g>
</g>
<g>
</g>
<g>
</g>
<g>
</g>
<g>
</g>
<g>
</g>
<g>
</g>
<g>
</g>
<g>
</g>
<g>
</g>
<g>
</g>
<g>
</g>
<g>
</g>
<g>
</g>
<g>
</g>
</svg>
